<?xml version="1.0" standalone="no"?><!-- Generator: Gravit.io --><svg xmlns="http://www.w3.org/2000/svg" xmlns:xlink="http://www.w3.org/1999/xlink" style="isolation:isolate" viewBox="-8 -95.562 576 517.333" width="576" height="517.333"><linearGradient id="_lgradient_16" x1="0%" y1="50%" x2="106.33971291866027%" y2="52.22858124468036%"><stop offset="0%" stop-opacity="1" style="stop-color:rgb(210,253,255)"/><stop offset="54.90430622009569%" stop-opacity="1" style="stop-color:rgb(143,47,151)"/><stop offset="100%" stop-opacity="1" style="stop-color:rgb(210,253,255)"/></linearGradient><path d=" M -5 156 C 14.5 204.5 26.5 204.5 40 209 C 53.5 213.5 53.661 141.88 63 164 C 72.5 186.5 67.608 249.91 83 231 C 100.5 209.5 77.752 145.759 97 119 C 117.5 90.5 114.392 301.662 131 261 C 145.5 225.5 142.353 26.047 170 27 C 184.5 27.5 181.369 383.355 212 417 C 223.089 429.18 229.443 376.823 232.071 312.564 C 236.149 212.874 243.673 -118.011 255 -91 C 274.5 -44.5 255.5 365 293 363 C 330.5 361 311.433 -20.132 329 24 C 349.5 75.5 325.5 270 351 259 C 371.6 250.114 358.591 122.456 364.692 82.683 C 366.143 73.221 368.676 68.733 373 72 C 395.5 89 376.5 243.5 398 271 C 413.159 290.39 406.785 122.898 415 113 C 434.588 89.398 434.652 253.864 453 246 C 463.5 241.5 453.985 175.578 467 170 C 477.5 165.5 475.5 214.5 489 223 Q 502.5 231.5 565 239" fill="none" vector-effect="non-scaling-stroke" stroke-width="2" stroke="url(#_lgradient_16)" stroke-linejoin="miter" stroke-linecap="square" stroke-miterlimit="3"/></svg>