<?xml version="1.0" standalone="no"?><!-- Generator: Gravit.io --><svg xmlns="http://www.w3.org/2000/svg" xmlns:xlink="http://www.w3.org/1999/xlink" style="isolation:isolate" viewBox="-34 -101.562 436 529.333" width="436" height="529.333"><linearGradient id="_lgradient_8" x1="0%" y1="50%" x2="106.33971291866027%" y2="52.22858124468036%"><stop offset="0%" stop-opacity="1" style="stop-color:rgb(210,253,255)"/><stop offset="54.90430622009569%" stop-opacity="1" style="stop-color:rgb(143,47,151)"/><stop offset="100%" stop-opacity="1" style="stop-color:rgb(210,253,255)"/></linearGradient><path d=" M -25 223 Q 16.5 79.5 35 119 C 51.068 153.308 52.392 301.662 69 261 C 83.5 225.5 80.353 26.047 108 27 C 122.5 27.5 119.369 383.355 150 417 C 161.089 429.18 167.443 376.823 170.071 312.564 C 174.149 212.874 181.673 -118.011 193 -91 C 212.5 -44.5 193.5 365 231 363 C 268.5 361 249.433 -20.132 267 24 C 287.5 75.5 263.5 270 289 259 C 309.6 250.114 296.591 122.456 302.692 82.683 C 304.143 73.221 306.676 68.733 311 72 C 333.5 89 314.5 243.5 336 271 C 351.159 290.39 344.785 122.898 353 113 C 372.588 89.398 385.5 255.5 393 237" fill="none" vector-effect="non-scaling-stroke" stroke-width="2" stroke="url(#_lgradient_8)" stroke-linejoin="miter" stroke-linecap="square" stroke-miterlimit="3"/><g id="null"><linearGradient id="_lgradient_9" x1="27.721056240024232%" y1="75.95907928388746%" x2="89.10209483944412%" y2="14.833759590792795%"><stop offset="0%" stop-opacity="1" style="stop-color:rgb(210,253,255)"/><stop offset="100%" stop-opacity="1" style="stop-color:rgb(128,0,128)"/></linearGradient><path d=" M 238.268 36.656 L 201.611 0 L 164.955 36.656 L 140.951 158.868 L 150.066 174.661 L 173.807 53.805 C 174.369 50.939 176.881 48.874 179.801 48.874 L 223.421 48.874 C 226.342 48.874 228.853 50.939 229.415 53.805 L 273.585 278.672 C 275.069 286.224 269.291 293.249 261.599 293.249 L 206.125 293.249 C 206.101 293.206 206.107 293.163 206.082 293.121 L 180.166 248.907 L 181.168 248.326 C 183.594 246.921 184.76 244.05 183.985 241.356 L 178.371 221.72 L 167.807 227.823 L 96.926 106.906 C 95.247 103.998 91.495 102.99 88.581 104.67 C 85.672 106.35 84.664 110.108 86.345 113.016 L 157.226 233.933 L 146.626 240.048 L 160.819 254.729 C 162.768 256.745 165.841 257.172 168.266 255.774 L 169.586 255.016 L 191.995 293.249 L 141.624 293.249 C 133.932 293.249 128.153 286.224 129.637 278.678 L 139.32 229.364 L 130.205 213.572 L 97.752 378.782 L 109.97 378.782 C 109.97 385.533 115.438 391 122.188 391 C 128.939 391 134.407 385.533 134.407 378.782 L 268.814 378.782 C 268.814 385.533 274.281 391 281.032 391 C 287.783 391 293.25 385.533 293.25 378.782 L 305.469 378.782 L 238.268 36.656 Z " fill="url(#_lgradient_9)"/></g></svg>